<?xml version="1.0" encoding="UTF-8"?>
<svg width="24px" height="24px" viewBox="0 0 24 24" version="1.1" xmlns="http://www.w3.org/2000/svg" xmlns:xlink="http://www.w3.org/1999/xlink">
    <!-- Generator: Sketch 64 (93537) - https://sketch.com -->
    <title>B备份 2</title>
    <desc>Created with Sketch.</desc>
    <g id="组件" stroke="none" stroke-width="1" fill="none" fill-rule="evenodd">
        <g id="编组">
            <rect id="矩形" x="0" y="0" width="24" height="24" rx="2"></rect>
            <g id="编组-9" transform="translate(2.000000, 2.000000)" fill="#404040" fill-rule="nonzero">
                <path d="M3.47226499,0.499230177 C3.48782537,0.219143418 3.71948134,5.15304415e-17 4,0 C4.28051866,-5.15304415e-17 4.51217463,0.219143418 4.52773501,0.499230177 L5,9 L7,9 L7.47226499,0.499230177 C7.48782537,0.219143418 7.71948134,5.15304415e-17 8,0 C8.28051866,-5.15304415e-17 8.51217463,0.219143418 8.52773501,0.499230177 L9,9 L11,9 L11.472265,0.499230177 C11.4878254,0.219143418 11.7194813,5.15304415e-17 12,0 C12.2805187,-5.15304415e-17 12.5121746,0.219143418 12.527735,0.499230177 L13,9 L15,9 L15.472265,0.499230177 C15.4878254,0.219143418 15.7194813,5.15304415e-17 16,0 C16.2805187,-5.15304415e-17 16.5121746,0.219143418 16.527735,0.499230177 L17,9 L18,9 C19.1045695,9 20,9.8954305 20,11 L20,18 C20,19.1045695 19.1045695,20 18,20 L2,20 C0.8954305,20 0,19.1045695 0,18 L0,11 C0,9.8954305 0.8954305,9 2,9 L3,9 L3.47226499,0.499230177 Z M18,11 L2,11 L2,18 L18,18 L18,11 Z M10.5,16 C10.7761424,16 11,16.2238576 11,16.5 C11,16.7761424 10.7761424,17 10.5,17 L3.5,17 C3.22385763,17 3,16.7761424 3,16.5 C3,16.2238576 3.22385763,16 3.5,16 L10.5,16 Z M15,14 C15.5522847,14 16,14.4477153 16,15 C16,15.5522847 15.5522847,16 15,16 C14.4477153,16 14,15.5522847 14,15 C14,14.4477153 14.4477153,14 15,14 Z M10.5,14 C10.7761424,14 11,14.2238576 11,14.5 C11,14.7761424 10.7761424,15 10.5,15 L3.5,15 C3.22385763,15 3,14.7761424 3,14.5 C3,14.2238576 3.22385763,14 3.5,14 L10.5,14 Z M10.5,12 C10.7761424,12 11,12.2238576 11,12.5 C11,12.7761424 10.7761424,13 10.5,13 L3.5,13 C3.22385763,13 3,12.7761424 3,12.5 C3,12.2238576 3.22385763,12 3.5,12 L10.5,12 Z" id="形状结合"></path>
            </g>
        </g>
    </g>
</svg>