<?xml version="1.0" encoding="UTF-8"?>
<svg width="24px" height="24px" viewBox="0 0 24 24" version="1.1" xmlns="http://www.w3.org/2000/svg" xmlns:xlink="http://www.w3.org/1999/xlink">
    <!-- Generator: Sketch 64 (93537) - https://sketch.com -->
    <title>B备份 4</title>
    <desc>Created with Sketch.</desc>
    <g id="组件" stroke="none" stroke-width="1" fill="none" fill-rule="evenodd">
        <g id="编组">
            <rect id="矩形" x="0" y="0" width="24" height="24" rx="2"></rect>
            <g id="编组-36" transform="translate(3.000000, 2.000000)" fill="#404040">
                <polygon id="矩形" points="0 2 18 2 18 3 13 5 5 5 0 3"></polygon>
                <rect id="矩形" x="3" y="0" width="12" height="1"></rect>
                <polygon id="矩形" points="5 10 13 8 13 10 5 12"></polygon>
                <polygon id="矩形" points="5 7 13 5 13 7 5 9"></polygon>
                <polygon id="矩形备份-85" points="5 13 13 11 13 13 5 15"></polygon>
                <polygon id="矩形备份-85" points="5 16 13 14 13 16 5 18"></polygon>
                <path d="M13,17 L13,19 L9,20 L9,18 L13,17 Z" id="形状结合"></path>
                <rect id="矩形" x="5" y="5" width="8" height="2"></rect>
            </g>
        </g>
    </g>
</svg>