<?xml version="1.0" encoding="UTF-8"?>
<svg width="24px" height="24px" viewBox="0 0 24 24" version="1.1" xmlns="http://www.w3.org/2000/svg" xmlns:xlink="http://www.w3.org/1999/xlink">
    <!-- Generator: Sketch 64 (93537) - https://sketch.com -->
    <title>B备份 12</title>
    <desc>Created with Sketch.</desc>
    <g id="组件" stroke="none" stroke-width="1" fill="none" fill-rule="evenodd">
        <g id="编组">
            <rect id="矩形" x="0" y="0" width="24" height="24" rx="2"></rect>
            <g id="编组-43" transform="translate(3.000000, 3.000000)">
                <path d="M5.17157288,1 L2,1 C1.72385763,1 1.47385763,1.11192881 1.29289322,1.29289322 C1.11192881,1.47385763 1,1.72385763 1,2 L1,16 C1,16.2761424 1.11192881,16.5261424 1.29289322,16.7071068 C1.47385763,16.8880712 1.72385763,17 2,17 L16,17 C16.2761424,17 16.5261424,16.8880712 16.7071068,16.7071068 C16.8880712,16.5261424 17,16.2761424 17,16 L17,5 C17,4.72385763 16.8880712,4.47385763 16.7071068,4.29289322 C16.5252032,4.1109896 16.2735455,3.99884003 15.9956983,4.00000905 L8.50828441,3.92249797 L5.87867966,1.29289322 C5.69114328,1.10535684 5.43678937,1 5.17157288,1 Z" id="矩形备份-3" stroke="#404040" stroke-width="2"></path>
                <polygon id="矩形" fill="#404040" points="12 7 14 7 11 13 9 13"></polygon>
                <polygon id="矩形" fill="#404040" points="7 8 9 8 6 14 4 14"></polygon>
                <polygon id="矩形" fill="#404040" points="7 8 9 8 11 13 9 13"></polygon>
            </g>
        </g>
    </g>
</svg>