<?xml version="1.0" encoding="UTF-8"?>
<svg width="24px" height="24px" viewBox="0 0 24 24" version="1.1" xmlns="http://www.w3.org/2000/svg" xmlns:xlink="http://www.w3.org/1999/xlink">
    <!-- Generator: Sketch 64 (93537) - https://sketch.com -->
    <title>B备份 13</title>
    <desc>Created with Sketch.</desc>
    <g id="组件" stroke="none" stroke-width="1" fill="none" fill-rule="evenodd">
        <g id="编组">
            <rect id="矩形" x="0" y="0" width="24" height="24" rx="2"></rect>
            <path d="M15,5 C15.5128358,5 15.9355072,5.38604019 15.9932723,5.88337887 L16,6 L16,8 L19,8 C20.1045695,8 21,8.8954305 21,10 L21,18 C21,18.5522847 20.5522847,19 20,19 L4,19 C3.44771525,19 3,18.5522847 3,18 L3,10 C3,8.8954305 3.8954305,8 5,8 L8,8 L8,6 C8,5.44771525 8.44771525,5 9,5 L15,5 Z M8,13 L5,13 L5,17 L19,17 L19,13 L16,13 L16,14.5 C16,14.7761424 15.7761424,15 15.5,15 C15.2238576,15 15,14.7761424 15,14.5 L15,13 L9,13 L9,14.5 C9,14.7761424 8.77614237,15 8.5,15 C8.22385763,15 8,14.7761424 8,14.5 L8,13 Z M19,10 L5,10 L5,12 L8,12 L8,11.5 C8,11.2238576 8.22385763,11 8.5,11 C8.77614237,11 9,11.2238576 9,11.5 L9,12 L15,12 L15,11.5 C15,11.2238576 15.2238576,11 15.5,11 C15.7761424,11 16,11.2238576 16,11.5 L16,12 L19,12 L19,10 Z M14,6 L10,6 L10,8 L14,8 L14,6 Z" id="形状结合" fill="#404040" fill-rule="nonzero"></path>
        </g>
    </g>
</svg>