<?xml version="1.0" encoding="UTF-8"?>
<svg width="16px" height="16px" viewBox="0 0 16 16" version="1.1" xmlns="http://www.w3.org/2000/svg" xmlns:xlink="http://www.w3.org/1999/xlink">
    <!-- Generator: Sketch 64 (93537) - https://sketch.com -->
    <title>C</title>
    <desc>Created with Sketch.</desc>
    <g id="IMAL++" stroke="none" stroke-width="1" fill="none" fill-rule="evenodd">
        <g id="编组-12备份-16">
            <rect id="矩形备份-17" x="0" y="0" width="16" height="16"></rect>
            <path d="M10.2996144,14.25 C10.5067212,14.25 10.6746144,14.4178932 10.6746144,14.625 C10.6746144,14.8321068 10.5067212,15 10.2996144,15 L5.70037019,15 C5.4932634,15 5.32537019,14.8321068 5.32537019,14.625 C5.32537019,14.4178932 5.4932634,14.25 5.70037019,14.25 L10.2996144,14.25 Z M10.1746144,12 C10.4507568,12 10.6746144,12.2238576 10.6746144,12.5 L10.6746144,13 C10.6746144,13.2761424 10.4507568,13.5 10.1746144,13.5 L5.82537019,13.5 C5.54922781,13.5 5.32537019,13.2761424 5.32537019,13 L5.32537019,12.5 C5.32537019,12.2238576 5.54922781,12 5.82537019,12 L10.1746144,12 Z M8.01459066,1 C8.42727206,1 8.81683825,1.21370927 9.07020012,1.57908908 L13.9295592,9.14477227 C14.0429198,9.30825247 14.0166635,9.54385582 13.8709143,9.67100708 C13.8122287,9.72220417 13.7400033,9.75 13.6656569,9.75 L10.6746144,9.75 L10.6746144,10.875 C10.6746144,11.0821068 10.5249308,11.25 10.3402867,11.25 L5.65969795,11.25 C5.47505383,11.25 5.32537019,11.0821068 5.32537019,10.875 L5.32537019,9.75 L2.33432777,9.75 C2.14968364,9.75 2,9.58210678 2,9.375 C2,9.29160905 2.02478111,9.2105971 2.0704254,9.14477227 L6.92978451,1.57908908 C7.18314639,1.21370927 7.57271257,1 7.98539397,1 L8.01459066,1 Z" id="形状结合" fill="#404040"></path>
        </g>
    </g>
</svg>