<?xml version="1.0" encoding="UTF-8"?>
<svg width="16px" height="16px" viewBox="0 0 16 16" version="1.1" xmlns="http://www.w3.org/2000/svg" xmlns:xlink="http://www.w3.org/1999/xlink">
    <!-- Generator: Sketch 64 (93537) - https://sketch.com -->
    <title>C备份 5</title>
    <desc>Created with Sketch.</desc>
    <g id="IMAL++" stroke="none" stroke-width="1" fill="none" fill-rule="evenodd">
        <g id="编组-9">
            <rect id="矩形备份-27" x="0" y="0" width="16" height="16"></rect>
            <g id="编组-8" transform="translate(1.000000, 0.000000)" fill="#404040">
                <path d="M2.91321464,16 C2.39601143,16 1.96414681,15.6056149 1.91732143,15.0905357 L1.09053575,5.99589321 C1.04487363,5.49360997 1.41503819,5.0494125 1.91732143,5.00375038 L1.95861821,5.00093808 L1.95861821,5.00093808 L2.08678536,5 C2.60398857,5 3.03585319,5.3943851 3.08267857,5.90946425 L3.818,14 L10.181,14 L10.9173214,5.90946425 C10.9641468,5.3943851 11.3960114,5 11.9132146,5 L12,5 C12.5043545,5 12.9132146,5.40886012 12.9132146,5.91321464 C12.9132146,5.94081668 12.9119632,5.96840452 12.9094643,5.99589321 L12.0826786,15.0905357 C12.0358532,15.6056149 11.6039886,16 11.0867854,16 L2.91321464,16 Z M8,0 C8.55228475,-1.01453063e-16 9,0.44771525 9,1 L9,2 L13,2 C13.5522847,2 14,2.44771525 14,3 C14,3.55228475 13.5522847,4 13,4 L1,4 C0.44771525,4 6.76353751e-17,3.55228475 0,3 C-6.76353751e-17,2.44771525 0.44771525,2 1,2 L5,2 L5,1 C5,0.44771525 5.44771525,1.01453063e-16 6,0 L8,0 Z" id="形状结合"></path>
            </g>
        </g>
    </g>
</svg>