<?xml version="1.0" encoding="UTF-8"?>
<svg width="16px" height="16px" viewBox="0 0 16 16" version="1.1" xmlns="http://www.w3.org/2000/svg" xmlns:xlink="http://www.w3.org/1999/xlink">
    <!-- Generator: Sketch 64 (93537) - https://sketch.com -->
    <title>C备份 4</title>
    <desc>Created with Sketch.</desc>
    <g id="IMAL++" stroke="none" stroke-width="1" fill="none" fill-rule="evenodd">
        <g id="编组-11备份-2">
            <rect id="矩形备份-27" x="0" y="0" width="16" height="16"></rect>
            <g id="编组-30" fill="#404040">
                <path d="M7.5,0 L8.5,0 C8.77614237,-5.07265313e-17 9,0.223857625 9,0.5 L9,10.5 C9,10.7761424 8.77614237,11 8.5,11 L7.5,11 C7.22385763,11 7,10.7761424 7,10.5 L7,0.5 C7,0.223857625 7.22385763,5.07265313e-17 7.5,0 Z" id="矩形"></path>
                <path d="M12.4142136,6 L13.3964466,6 C13.5345178,6 13.6464466,6.11192881 13.6464466,6.25 C13.6464466,6.31630412 13.6201074,6.3798926 13.5732233,6.4267767 L9.14644661,10.8535534 C9.05267842,10.9473216 8.92550146,11 8.79289322,11 L8,11 C7.77123617,11 7.58578644,10.8145503 7.58578644,10.5857864 C7.58578644,10.4759302 7.62942667,10.3705733 7.70710678,10.2928932 L11.7071068,6.29289322 C11.8946432,6.10535684 12.1489971,6 12.4142136,6 Z" id="矩形"></path>
                <path d="M7.41421356,6 L8.39644661,6 C8.5345178,6 8.64644661,6.11192881 8.64644661,6.25 C8.64644661,6.31630412 8.6201074,6.3798926 8.5732233,6.4267767 L4.14644661,10.8535534 C4.05267842,10.9473216 3.92550146,11 3.79289322,11 L3,11 C2.77123617,11 2.58578644,10.8145503 2.58578644,10.5857864 C2.58578644,10.4759302 2.62942667,10.3705733 2.70710678,10.2928932 L6.70710678,6.29289322 C6.89464316,6.10535684 7.14899707,6 7.41421356,6 Z" id="矩形" transform="translate(5.500000, 8.500000) scale(-1, 1) translate(-5.500000, -8.500000) "></path>
                <path d="M0.723606798,10.3618034 L1.7236068,10.8618034 C1.89299881,10.9464994 2,11.119631 2,11.309017 L2,14 L2,14 L0,14 L0,10.809017 C-3.38176876e-17,10.5328746 0.223857625,10.309017 0.5,10.309017 C0.577622548,10.309017 0.654179081,10.3270895 0.723606798,10.3618034 Z" id="矩形备份-83"></path>
                <path d="M14.2763932,10.8618034 L15.2763932,10.3618034 C15.5233825,10.2383088 15.823719,10.3384209 15.9472136,10.5854102 C15.9819275,10.6548379 16,10.7313944 16,10.809017 L16,14 L16,14 L14,14 L14,11.309017 C14,11.119631 14.1070012,10.9464994 14.2763932,10.8618034 Z" id="矩形备份-84"></path>
                <path d="M0,14 L16,14 C16,15.1045695 15.1045695,16 14,16 L2,16 C0.8954305,16 1.3527075e-16,15.1045695 0,14 L0,14 L0,14 Z" id="矩形备份-82"></path>
            </g>
        </g>
    </g>
</svg>