<?xml version="1.0" encoding="UTF-8"?>
<svg width="16px" height="16px" viewBox="0 0 16 16" version="1.1" xmlns="http://www.w3.org/2000/svg" xmlns:xlink="http://www.w3.org/1999/xlink">
    <!-- Generator: Sketch 64 (93537) - https://sketch.com -->
    <title>形状结合</title>
    <desc>Created with Sketch.</desc>
    <g id="组件" stroke="none" stroke-width="1" fill="none" fill-rule="evenodd">
        <g id="矩形" transform="translate(-218.000000, -154.000000)" fill="#404040">
            <path d="M226.38552,154 C226.602716,154 226.79507,154.140219 226.861534,154.346995 L227.450864,156.176602 C228.036921,156.322137 228.588948,156.553826 229.092725,156.857449 L230.802295,155.979312 C230.995505,155.880096 231.23067,155.916961 231.38425,156.070542 L231.929458,156.61575 C232.083039,156.76933 232.119904,157.004495 232.020688,157.197705 L231.142551,158.907275 C231.446174,159.411052 231.677863,159.963079 231.823398,160.549136 L233.653005,161.138466 C233.859781,161.20493 234,161.397284 234,161.61448 L234,162.38552 C234,162.602716 233.859781,162.79507 233.653005,162.861534 L231.823646,163.449865 C231.678126,164.036293 231.446346,164.588662 231.142551,165.092725 L232.020688,166.802295 C232.119904,166.995505 232.083039,167.23067 231.929458,167.38425 L231.38425,167.929458 C231.23067,168.083039 230.995505,168.119904 230.802295,168.020688 L229.092725,167.142551 C228.588948,167.446174 228.036921,167.677863 227.450864,167.823398 L226.861534,169.653005 C226.79507,169.859781 226.602716,170 226.38552,170 L225.61448,170 C225.397284,170 225.20493,169.859781 225.138466,169.653005 L224.550135,167.823646 C223.963707,167.678126 223.411338,167.446346 222.907275,167.142551 L221.197705,168.020688 C221.004495,168.119904 220.76933,168.083039 220.61575,167.929458 L220.070542,167.38425 C219.916961,167.23067 219.880096,166.995505 219.979312,166.802295 L220.857449,165.092725 C220.553654,164.588662 220.321874,164.036293 220.176354,163.449865 L218.346995,162.861534 C218.140219,162.79507 218,162.602716 218,162.38552 L218,161.61448 C218,161.397284 218.140219,161.20493 218.346995,161.138466 L220.176602,160.549136 C220.322137,159.963079 220.553826,159.411052 220.857449,158.907275 L219.979312,157.197705 C219.880096,157.004495 219.916961,156.76933 220.070542,156.61575 L220.61575,156.070542 C220.76933,155.916961 221.004495,155.880096 221.197705,155.979312 L222.907275,156.857449 C223.411338,156.553654 223.963707,156.321874 224.550135,156.176354 L225.138466,154.346995 C225.20493,154.140219 225.397284,154 225.61448,154 L226.38552,154 Z M226,158 C223.790861,158 222,159.790861 222,162 C222,164.209139 223.790861,166 226,166 C228.209139,166 230,164.209139 230,162 C230,159.790861 228.209139,158 226,158 Z" id="形状结合"></path>
        </g>
    </g>
</svg>