<?xml version="1.0" encoding="UTF-8"?>
<svg width="16px" height="16px" viewBox="0 0 16 16" version="1.1" xmlns="http://www.w3.org/2000/svg" xmlns:xlink="http://www.w3.org/1999/xlink">
    <!-- Generator: Sketch 64 (93537) - https://sketch.com -->
    <title>C备份</title>
    <desc>Created with Sketch.</desc>
    <g id="IMAL++" stroke="none" stroke-width="1" fill="none" fill-rule="evenodd">
        <g id="编组-31">
            <path d="M11.1715729,1 L4.82842712,1 C4.56321063,1 4.30885672,1.10535684 4.12132034,1.29289322 L1.29289322,4.12132034 C1.10535684,4.30885672 1,4.56321063 1,4.82842712 L1,14 C1,14.2761424 1.11192881,14.5261424 1.29289322,14.7071068 C1.47385763,14.8880712 1.72385763,15 2,15 L14,15 C14.2761424,15 14.5261424,14.8880712 14.7071068,14.7071068 C14.8880712,14.5261424 15,14.2761424 15,14 L15,4.82842712 C15,4.56321063 14.8946432,4.30885672 14.7071068,4.12132034 L11.8786797,1.29289322 C11.6911433,1.10535684 11.4367894,1 11.1715729,1 Z" id="矩形备份-77" stroke="#404040" stroke-width="2"></path>
            <path d="M8.01051996,4 C8.22771569,4 8.42007035,4.14021887 8.48653424,4.34699541 L8.72616321,5.08848276 C9.01873605,5.16121575 9.29433801,5.27689449 9.54588974,5.4284396 L10.2390327,5.07290402 C10.4322428,4.973688 10.6674078,5.01055357 10.8209884,5.16413414 L10.8358659,5.17901161 C10.9894464,5.33259218 11.026312,5.56775718 10.927096,5.76096734 L10.5715604,6.45411026 C10.7231055,6.70566199 10.8387842,6.98126395 10.9115172,7.27383679 L11.6530046,7.51346576 C11.8597811,7.57992965 12,7.77228431 12,7.98948004 L12,8.01051996 C12,8.22771569 11.8597811,8.42007035 11.6530046,8.48653424 L10.9117669,8.72515802 C10.8390491,9.0181048 10.7232791,9.29404994 10.5715604,9.54588974 L10.927096,10.2390327 C11.026312,10.4322428 10.9894464,10.6674078 10.8358659,10.8209884 L10.8209884,10.8358659 C10.6674078,10.9894464 10.4322428,11.026312 10.2390327,10.927096 L9.54588974,10.5715604 C9.29433801,10.7231055 9.01873605,10.8387842 8.72616321,10.9115172 L8.48653424,11.6530046 C8.42007035,11.8597811 8.22771569,12 8.01051996,12 L7.98948004,12 C7.77228431,12 7.57992965,11.8597811 7.51346576,11.6530046 L7.27484198,10.9117669 C6.9818952,10.8390491 6.70595006,10.7232791 6.45411026,10.5715604 L5.76096734,10.927096 C5.56775718,11.026312 5.33259218,10.9894464 5.17901161,10.8358659 L5.16413414,10.8209884 C5.01055357,10.6674078 4.973688,10.4322428 5.07290402,10.2390327 L5.4284396,9.54588974 C5.27672094,9.29404994 5.16095086,9.0181048 5.08823305,8.72515802 L4.34699541,8.48653424 C4.14021887,8.42007035 4,8.22771569 4,8.01051996 L4,7.98948004 C4,7.77228431 4.14021887,7.57992965 4.34699541,7.51346576 L5.08848276,7.27383679 C5.16121575,6.98126395 5.27689449,6.70566199 5.4284396,6.45411026 L5.07290402,5.76096734 C4.973688,5.56775718 5.01055357,5.33259218 5.16413414,5.17901161 L5.17901161,5.16413414 C5.33259218,5.01055357 5.56775718,4.973688 5.76096734,5.07290402 L6.45411026,5.4284396 C6.70595006,5.27672094 6.9818952,5.16095086 7.27484198,5.08823305 L7.51346576,4.34699541 C7.57992965,4.14021887 7.77228431,4 7.98948004,4 L8.01051996,4 Z M8,6.5 C7.17157288,6.5 6.5,7.17157288 6.5,8 C6.5,8.82842712 7.17157288,9.5 8,9.5 C8.82842712,9.5 9.5,8.82842712 9.5,8 C9.5,7.17157288 8.82842712,6.5 8,6.5 Z" id="形状结合备份-3" fill="#404040"></path>
        </g>
    </g>
</svg>