<?xml version="1.0" encoding="UTF-8"?>
<svg width="16px" height="16px" viewBox="0 0 16 16" version="1.1" xmlns="http://www.w3.org/2000/svg" xmlns:xlink="http://www.w3.org/1999/xlink">
    <!-- Generator: Sketch 64 (93537) - https://sketch.com -->
    <title>C备份 2</title>
    <desc>Created with Sketch.</desc>
    <g id="IMAL++" stroke="none" stroke-width="1" fill="none" fill-rule="evenodd">
        <g id="编组-11备份-2">
            <rect id="矩形备份-27" x="0" y="0" width="16" height="16"></rect>
            <g id="编组-7" transform="translate(1.000000, 0.000000)" fill="#404040">
                <path d="M7,1.8369702e-16 C7.55228475,8.22439572e-17 8,0.44771525 8,1 L8.00101007,2.07103341 C11.3928118,2.55669765 14,5.4738781 14,9 C14,12.8659932 10.8659932,16 7,16 C3.13400675,16 0,12.8659932 0,9 C0,5.47353094 2.60770164,2.55612324 5.99999177,2.07089004 L6,1 C6,0.44771525 6.44771525,2.85150083e-16 7,1.8369702e-16 Z M8.0011864,4.10025909 L8,8 C8,8.55228475 7.55228475,9 7,9 C6.44771525,9 6,8.55228475 6,8 L5.99981203,4.10005628 C3.71766536,4.56339924 2,6.5811085 2,9 C2,11.7614237 4.23857625,14 7,14 C9.76142375,14 12,11.7614237 12,9 C12,6.58146126 10.2828356,4.56398776 8.0011864,4.10025909 Z" id="形状结合"></path>
            </g>
        </g>
    </g>
</svg>